# xmcd CD database file generated by OrangeCD 6.2
#
# Track frame offsets:
#	150
#	22492
#	42226
#	62805
#	81386
#	111553
#	129142
#	145093
#	163803
#	180920
#	202637
#	217546
#	245439
#	264327
#	280844
#
# Disc length: 4002 seconds
#
# Revision: 2
# Processed by: cddbd v1.5.2PL0 Copyright (c) Steve Scherf et al.
# Submitted via: OrangeCD 6.2
#
DISCID=cf0fa00f
DTITLE=Various Artist - Smooth Duets
DYEAR=2007
DGENRE=Dance R&B
TTITLE0=Patti LaBelle and Michael McDonald - On My Own
TTITLE1=Rod Stewart and The Temptations - The Motown Song
TTITLE2=Ruby Turner and The Temptations - Just My Imagination
TTITLE3=Kenny G With David Benoit - You Send Me
TTITLE4=B.B. King and Eric Clapton - Rock Me Baby
TTITLE5=Roy Orbison and K.D. Lang - Crying
TTITLE6=Nat King Cole and & Natalie Cole - Unforegettable
TTITLE7=Julio Iglesias and Diana Ross - All Of You
TTITLE8=Michael Jackson and Paul McCartney - The Girl Is Mine
TTITLE9=Aretha Franklin and George Michael - If Ever A LoveThere Was
TTITLE10=Diana Ross and The Temptations - My Girl My Guy
TTITLE11=The Manhattan Transfer and Ruth Brown - The Thrill Is Gone
TTITLE12=Kenny G With David Benoit - Don't Know Why
TTITLE13=Elton John and Paul Young - I'm Your Puppet
TTITLE14=Dionne Warwick, Elton John, Gladys Knight, Stevie Wonder - Thats What 
TTITLE14=Friends Are For
EXTD=
EXTT0=
EXTT1=
EXTT2=
EXTT3=
EXTT4=
EXTT5=
EXTT6=
EXTT7=
EXTT8=
EXTT9=
EXTT10=
EXTT11=
EXTT12=
EXTT13=
EXTT14=
PLAYORDER=
